<svg width="64" height="64" xmlns="http://www.w3.org/2000/svg">

 <title/>
 <g>
  <title>background</title>
  <rect fill="none" id="canvas_background" height="402" width="582" y="-1" x="-1"/>
 </g>
 <g>
  <title>Layer 1</title>
  <path stroke="null" fill="#e100ed" id="svg_1" d="m30.404645,11.51l-23.32,40.39a2.13,2.13 0 0 0 1.84,3.19l46.64,0a2.13,2.13 0 0 0 1.84,-3.19l-23.32,-40.39a2.13,2.13 0 0 0 -3.68,0z" class="cls-1"/>
  <path fill="#1c1818" id="svg_2" d="m29,46a3,3 0 1 1 3,3a2.88,2.88 0 0 1 -3,-3zm1.09,-4.66l-0.76,-15l5.26,0l-0.73,15l-3.77,0z" class="cls-2"/>
 </g>
</svg>